# xmcd CD database file
#
# Track frame offsets:
#	150
#	13976
#	28605
#	41525
#	54351
#	66973
#	80249
#	94345
#	107299
#	122013
#	136696
#	149755
#	163228
#	179286
#
# Disc length: 2574 seconds
#
# Revision: 0
# Processed by: cddbd v1.5.1PL0 Copyright (c) Steve Scherf et al.
# Submitted via: CDex 1.51
#
DISCID=c40a0c0e
DTITLE=Robert Nighthawk - Sweet Black Angel
DYEAR=2000
DGENRE=Blues
TTITLE0=Black Angel Blues (Sweet Black Angel)
TTITLE1=Anna Lee Blues
TTITLE2=Jackson Town Gal
TTITLE3=My Sweet Lovin' Woman
TTITLE4=Down the Line
TTITLE5=Handsome Lover
TTITLE6=She Knows How to Love a Man
TTITLE7=Sugar Papa
TTITLE8=Return Mail Blues
TTITLE9=Good News
TTITLE10=Six Three O
TTITLE11=Prison Bound
TTITLE12=Sorry My Angel
TTITLE13=Someday
EXTD=YEAR: 2000
EXTT0=
EXTT1=
EXTT2=
EXTT3=
EXTT4=
EXTT5=
EXTT6=
EXTT7=
EXTT8=
EXTT9=
EXTT10=
EXTT11=
EXTT12=
EXTT13=
PLAYORDER=
